<?xml version="1.0" encoding="UTF-8" standalone="no"?>
<!-- Generator: Adobe Illustrator 24.1.3, SVG Export Plug-In . SVG Version: 6.00 Build 0)  -->

<svg
   version="1.1"
   id="Layer_1"
   x="0px"
   y="0px"
   viewBox="0 0 310 309.99999"
   xml:space="preserve"
   sodipodi:docname="logo-with-outline.svg"
   width="310"
   height="310"
   inkscape:export-filename="logo-with-outline.png"
   inkscape:export-xdpi="200"
   inkscape:export-ydpi="200"
   inkscape:version="1.4 (e7c3feb100, 2024-10-09)"
   xmlns:inkscape="http://www.inkscape.org/namespaces/inkscape"
   xmlns:sodipodi="http://sodipodi.sourceforge.net/DTD/sodipodi-0.dtd"
   xmlns="http://www.w3.org/2000/svg"
   xmlns:svg="http://www.w3.org/2000/svg"
   xmlns:rdf="http://www.w3.org/1999/02/22-rdf-syntax-ns#"
   xmlns:cc="http://creativecommons.org/ns#"
   xmlns:dc="http://purl.org/dc/elements/1.1/"><defs
   id="defs7" /><sodipodi:namedview
   id="namedview7"
   pagecolor="#ffffff"
   bordercolor="#000000"
   borderopacity="0.25"
   inkscape:showpageshadow="2"
   inkscape:pageopacity="0.0"
   inkscape:pagecheckerboard="0"
   inkscape:deskcolor="#d1d1d1"
   inkscape:export-bgcolor="#ffffffff"
   inkscape:zoom="1.2662045"
   inkscape:cx="12.241308"
   inkscape:cy="126.75677"
   inkscape:window-width="1920"
   inkscape:window-height="1026"
   inkscape:window-x="0"
   inkscape:window-y="27"
   inkscape:window-maximized="1"
   inkscape:current-layer="g7" />
<title
   id="title1">RISC-V</title>
<desc
   id="desc1">Open-source CPU instruction set architecture</desc>
<style
   type="text/css"
   id="style1">
	.st0{fill:#F5B21B;}
	.st1{fill:#283272;}
</style>
<g
   id="g7"
   inkscape:label="logo">
	<g
   id="g5"
   transform="matrix(1.8987342,0,0,1.9071837,752.11467,-220.87188)"
   inkscape:label="symbol">
		<path
   class="st0"
   d="m -304.68039,167.63216 c 0,22.9 -13.9,43.6 -40.9,48.5 l 38.1,45 3.4,-4.8 68.6,-97 v -40.9 h -111.5 c 28.4,2.8 42.3,26.3 42.3,49.2 z"
   id="path1"
   style="display:inline;fill:#fdb515;fill-opacity:1"
   inkscape:label="yellow" />
		<path
   class="st1"
   d="m -383.78039,195.33216 h 26.3 c 19.4,0 29.1,-13.8 29.1,-27.7 0,-13.9 -9.7,-27 -29.1,-27 h -36 v 135.1 h 67.2 l -57.5,-69.3 z m 97.7,73.4 50.6,-70.7 v 77.6 h -55.6 z"
   id="path2"
   style="display:inline;fill:#003262;fill-opacity:1"
   inkscape:label="blue" />
		
		
		
		
		
		
	</g><path
   id="rect66"
   style="display:none;fill:#ffffff;fill-opacity:1;stroke-width:10.4036"
   d="M 5.0000012,5 V 154.99999 A 150,149.99999 0 0 1 155,5 Z M 155,5 A 150,149.99999 0 0 1 305,154.99999 V 5 Z M 305,154.99999 A 150,149.99999 0 0 1 155,305 H 305 Z M 155,305 A 150,149.99999 0 0 1 5.0000012,154.99999 V 305 Z"
   inkscape:label="bg-white" />
	
</g>
<metadata
   id="metadata66"><rdf:RDF><cc:Work
       rdf:about=""><dc:title>RISC-V</dc:title></cc:Work></rdf:RDF></metadata></svg>
