<?xml version="1.0" encoding="UTF-8" standalone="no"?>
<!-- Created with Inkscape (http://www.inkscape.org/) -->

<svg
   width="2000mm"
   height="500mm"
   viewBox="0 0 2000 500"
   version="1.1"
   id="svg1"
   sodipodi:docname="risc-banner.svg"
   inkscape:export-filename="banner.png"
   inkscape:export-xdpi="200"
   inkscape:export-ydpi="200"
   inkscape:version="1.4 (e7c3feb100, 2024-10-09)"
   xmlns:inkscape="http://www.inkscape.org/namespaces/inkscape"
   xmlns:sodipodi="http://sodipodi.sourceforge.net/DTD/sodipodi-0.dtd"
   xmlns="http://www.w3.org/2000/svg"
   xmlns:svg="http://www.w3.org/2000/svg">
  <sodipodi:namedview
     id="namedview1"
     pagecolor="#003262"
     bordercolor="#000000"
     borderopacity="0.25"
     inkscape:showpageshadow="2"
     inkscape:pageopacity="0.0"
     inkscape:pagecheckerboard="0"
     inkscape:deskcolor="#d1d1d1"
     inkscape:document-units="mm"
     showguides="false"
     showgrid="true"
     inkscape:export-bgcolor="#003262ff"
     inkscape:zoom="0.08"
     inkscape:cx="1243.75"
     inkscape:cy="1868.75"
     inkscape:window-width="1920"
     inkscape:window-height="1026"
     inkscape:window-x="0"
     inkscape:window-y="27"
     inkscape:window-maximized="1"
     inkscape:current-layer="layer1">
    <sodipodi:guide
       position="0,400"
       orientation="0,1"
       id="guide20"
       inkscape:locked="false"
       inkscape:label=""
       inkscape:color="rgb(0,134,229)" />
    <sodipodi:guide
       position="1900,325.18902"
       orientation="-1,0"
       id="guide21"
       inkscape:locked="false"
       inkscape:label=""
       inkscape:color="rgb(0,134,229)" />
    <sodipodi:guide
       position="2000,99.999999"
       orientation="0,1"
       id="guide22"
       inkscape:locked="false"
       inkscape:label=""
       inkscape:color="rgb(0,134,229)" />
    <sodipodi:guide
       position="99.999999,0"
       orientation="-1,0"
       id="guide23"
       inkscape:locked="false"
       inkscape:label=""
       inkscape:color="rgb(0,134,229)" />
    <inkscape:grid
       id="grid23"
       units="mm"
       originx="0"
       originy="0"
       spacingx="0.99999999"
       spacingy="0.99999999"
       empcolor="#0099e5"
       empopacity="0.30196078"
       color="#0099e5"
       opacity="0.14901961"
       empspacing="1"
       enabled="false"
       visible="true" />
    <sodipodi:guide
       position="0,500"
       orientation="0,7559.0551"
       id="guide2"
       inkscape:locked="false" />
    <sodipodi:guide
       position="2000,500"
       orientation="1889.7638,0"
       id="guide3"
       inkscape:locked="false" />
    <sodipodi:guide
       position="2000,0"
       orientation="0,-7559.0551"
       id="guide4"
       inkscape:locked="false" />
    <sodipodi:guide
       position="0,0"
       orientation="-1889.7638,0"
       id="guide5"
       inkscape:locked="false" />
    <sodipodi:guide
       position="0,500"
       orientation="0,7559.0551"
       id="guide6"
       inkscape:locked="false" />
    <sodipodi:guide
       position="2000,500"
       orientation="1889.7638,0"
       id="guide7"
       inkscape:locked="false" />
    <sodipodi:guide
       position="2000,0"
       orientation="0,-7559.0551"
       id="guide8"
       inkscape:locked="false" />
    <sodipodi:guide
       position="0,0"
       orientation="-1889.7638,0"
       id="guide9"
       inkscape:locked="false" />
    <sodipodi:guide
       position="0,500"
       orientation="0,7559.0551"
       id="guide10"
       inkscape:locked="false" />
    <sodipodi:guide
       position="2000,500"
       orientation="1889.7638,0"
       id="guide11"
       inkscape:locked="false" />
    <sodipodi:guide
       position="2000,0"
       orientation="0,-7559.0551"
       id="guide12"
       inkscape:locked="false" />
    <sodipodi:guide
       position="0,0"
       orientation="-1889.7638,0"
       id="guide13"
       inkscape:locked="false" />
    <sodipodi:guide
       position="0,500"
       orientation="0,7559.0551"
       id="guide14"
       inkscape:locked="false" />
    <sodipodi:guide
       position="2000,500"
       orientation="1889.7638,0"
       id="guide15"
       inkscape:locked="false" />
    <sodipodi:guide
       position="2000,0"
       orientation="0,-7559.0551"
       id="guide16"
       inkscape:locked="false" />
    <sodipodi:guide
       position="0,0"
       orientation="-1889.7638,0"
       id="guide17"
       inkscape:locked="false" />
  </sodipodi:namedview>
  <defs
     id="defs1" />
  <g
     inkscape:label="Strat 1"
     inkscape:groupmode="layer"
     id="layer1"
     transform="translate(1296.4768,7.5065717)">
    <g
       id="g7"
       transform="matrix(0.26458333,0,0,0.26458333,676.32639,-399.07522)"
       style="display:inline"
       inkscape:label="branding">
      <g
         id="g5"
         style="display:inline"
         inkscape:label="quote"
         transform="translate(3265.4687,18.666861)">
        <text
           xml:space="preserve"
           style="font-style:normal;font-variant:normal;font-weight:300;font-stretch:normal;font-size:333.333px;font-family:'Open Sans';-inkscape-font-specification:'Open Sans Light';text-align:center;writing-mode:lr-tb;direction:ltr;text-anchor:middle;display:inline;fill:#ffffff;fill-opacity:1;stroke-width:11.3386"
           x="-4661.3555"
           y="2317.2925"
           id="text23"
           inkscape:label="quote"><tspan
             sodipodi:role="line"
             id="tspan23"
             x="-4661.3555"
             y="2317.2925"
             style="font-size:333.333px">Instruction sets </tspan><tspan
             sodipodi:role="line"
             x="-4661.3555"
             y="2733.9587"
             id="tspan24"
             style="font-size:333.333px">want to be free!</tspan></text>
        <rect
           style="display:inline;fill:#ffffff;fill-opacity:1;stroke-width:19.7162"
           id="rect23"
           width="18.897638"
           height="1133.8583"
           x="-5186.9629"
           y="357.15012"
           inkscape:label="spacing"
           transform="translate(-868.46569,1482.0803)" />
      </g>
      <g
         id="g1"
         transform="matrix(3.7369677,0,0,3.5156175,-6648.2082,1982.8081)"
         style="display:inline"
         inkscape:label="branding_compatible">
        <g
           id="g17"
           inkscape:label="branding">
          <rect
             x="388.70001"
             y="26.299999"
             class="st1"
             width="22.9"
             height="107.4"
             id="rect2"
             style="display:inline;fill:#ffffff" />
          <path
             class="st1"
             d="m 547.8,110.2 -119,-0.1 v 23.6 h 119.9 c 9,0 16.6,-3.5 22.9,-9.7 6.2,-6.2 9.7,-13.9 9.7,-22.9 0,-9 -3.5,-16.6 -9.7,-22.9 -6.2,-6.2 -13.9,-9.7 -22.9,-9.7 L 461.5,68 c -5.1,0 -9.3,-4.2 -9.3,-9.3 v 0 0 c 0,-5.2 4.2,-9.3 9.4,-9.3 l 119.7,-0.1 v -23 H 461.4 c -9,0 -16.6,3.5 -22.9,9.7 -6.2,6.2 -9.7,13.9 -9.7,22.9 0,9 3.5,16.6 9.7,22.9 6.2,6.2 13.8,9 22.9,9 h 87.1 c 5.2,0 9.4,4.2 9.3,9.4 v 0 0 c 0.1,5.5 -4.4,10 -10,10 z"
             id="path3"
             style="display:inline;fill:#ffffff" />
          <path
             class="st1"
             d="m 645.7,26.3 h 99.1 v 22.9 h -99.1 c -8.3,0 -15.2,2.7 -21.5,9 -6.2,6.2 -9,13.2 -9,21.5 0,8.3 2.8,15.2 9,21.5 6.3,6.2 13.2,9 21.5,9 h 99.1 v 23.6 h -99 c -14.5,0 -27.1,-5.6 -37.5,-16 -10.4,-10.4 -15.2,-22.9 -15.2,-37.4 0,-14.5 4.8,-27 15.2,-37.4 10.4,-11.1 22.9,-16.7 37.4,-16.7 z"
             id="path4"
             style="display:inline;fill:#ffffff" />
          <path
             class="st1"
             d="M 338.1,69.5 242.5,69.3 V 49.9 l 96.6,-0.2 c 5.2,0 9.4,4.2 9.5,9.4 v 0 0 c -0.1,5.7 -4.8,10.4 -10.5,10.4 z m 34,64.2 -30.5,-42.3 c 8.3,-0.7 15.2,-3.5 20.8,-9.7 6.2,-6.3 9.7,-13.9 9.7,-22.9 0,-9 -3.5,-16.6 -9.7,-22.9 -6.2,-6.3 -13.9,-9.7 -22.9,-9.7 H 219.6 v 107.4 h 22.9 V 91.3 h 70.7 l 30.5,42.3 h 28.4 z"
             id="path5"
             style="display:inline;fill:#ffffff" />
          <polyline
             class="st0"
             points="859.1,133.7 796.3,26.3 823.2,26.3 872.3,111.5 921.3,26.3 947.8,26.3 885.4,133.7   "
             id="polyline5"
             style="display:inline;fill:#fdb515;fill-opacity:1" />
          <rect
             x="758.70001"
             y="70"
             class="st0"
             width="45"
             height="20.799999"
             id="rect5"
             style="display:inline;fill:#fdb515;fill-opacity:1" />
        </g>
        <text
           xml:space="preserve"
           style="font-weight:500;font-size:102.325px;line-height:3.2;font-family:'Open Sans';-inkscape-font-specification:'Open Sans Medium';text-align:start;letter-spacing:15.3488px;writing-mode:lr-tb;direction:ltr;text-anchor:start;display:inline;fill:#ffffff;fill-opacity:1;stroke-width:1.74034"
           x="584.64398"
           y="223.88727"
           id="text2"
           transform="scale(0.99834275,1.00166)"
           inkscape:label="compatible"><tspan
             sodipodi:role="line"
             id="tspan2"
             x="592.31836"
             y="223.88727"
             style="font-style:normal;font-variant:normal;font-weight:300;font-stretch:normal;line-height:3.2;font-family:'Open Sans';-inkscape-font-specification:'Open Sans Light';text-align:center;letter-spacing:15.3488px;text-anchor:middle;stroke-width:1.74034">COMPATIBLE</tspan></text>
      </g>
    </g>
    <g
       id="g2"
       inkscape:label="logo"
       transform="translate(-1303.701,-7.5065717)">
      <rect
         style="display:inline;fill:#ffffff;fill-opacity:1;stroke-width:10.4036"
         id="rect66"
         width="299.99997"
         height="300"
         x="100"
         y="100"
         inkscape:label="white-bg" />
      <path
         class="st0"
         d="m 268.00729,195.64533 c 0,42.26566 -25.54104,80.47084 -75.15312,89.5146 l 70.00814,83.05475 6.24746,-8.85917 126.05146,-179.02915 V 104.83879 H 190.28167 c 52.18458,5.16784 77.72562,48.54088 77.72562,90.80654 z"
         id="path1"
         style="fill:#fdb515;fill-opacity:1;stroke-width:1.84157"
         inkscape:label="yellow" />
      <path
         class="st1"
         d="m 122.66224,246.77015 h 48.32584 c 35.64723,0 53.47082,-25.47011 53.47082,-51.12482 0,-25.65471 -17.82359,-49.83285 -53.47082,-49.83285 H 104.83865 V 395.16137 H 228.3176 L 122.66224,267.257 Z M 302.18451,382.24172 395.16123,251.75343 V 394.97677 H 292.99708 Z"
         id="path2"
         style="display:inline;fill:#003262;fill-opacity:1;stroke-width:1.84157"
         inkscape:label="blue" />
    </g>
  </g>
</svg>
