<?xml version="1.0" encoding="UTF-8" standalone="no"?>
<svg
   version="1.1"
   id="Layer_1"
   x="0px"
   y="0px"
   viewBox="0 0 360 500"
   style="enable-background:new 0 0 360 500;"
   xml:space="preserve"
   sodipodi:docname="riscv-compatible.svg"
   inkscape:version="1.4 (e7c3feb100, 2024-10-09)"
   inkscape:export-filename="riscv-compatible.png"
   inkscape:export-xdpi="200"
   inkscape:export-ydpi="200"
   xmlns:inkscape="http://www.inkscape.org/namespaces/inkscape"
   xmlns:sodipodi="http://sodipodi.sourceforge.net/DTD/sodipodi-0.dtd"
   xmlns="http://www.w3.org/2000/svg"
   xmlns:svg="http://www.w3.org/2000/svg"><defs
   id="defs16" /><sodipodi:namedview
   id="namedview16"
   pagecolor="#ffffff"
   bordercolor="#000000"
   borderopacity="0.25"
   inkscape:showpageshadow="2"
   inkscape:pageopacity="0.0"
   inkscape:pagecheckerboard="0"
   inkscape:deskcolor="#d1d1d1"
   inkscape:zoom="1.1667262"
   inkscape:cx="-6.856793"
   inkscape:cy="241.2734"
   inkscape:window-width="1920"
   inkscape:window-height="1026"
   inkscape:window-x="0"
   inkscape:window-y="27"
   inkscape:window-maximized="1"
   inkscape:current-layer="g16"
   inkscape:export-bgcolor="#ffffffff" /> <style
   type="text/css"
   id="style1"> .st0{fill:none;} .st1{fill:#FFFFFF;} .st2{fill:#262F75;} .st3{fill:#FFC600;} </style> <g
   id="g16">          <g
   id="g19"
   inkscape:label="logo"
   style="display:inline"
   transform="matrix(1.0059022,0,0,1.0038291,-0.01239228,-1.9072753)"><path
     class="st3"
     d="M 356.39999,1.9 H 105.1 c 64,6.2 95.2,59.3 95.2,110.8 0,51.5 -31.2,98.3 -92.1,109.3 L 194,323.4 201.8,312.5 356.39999,94 l 1.5,-2.2 V 1.9 Z"
     id="path6"
     style="fill:#fdb515;fill-opacity:1" /><path
     id="path7"
     class="st2"
     d="M 0.01231957,51.900391 V 357.5923 379.68564 499.99275 H 358 V 379.58365 357.49031 181.94984 L 243.33141,341.82451 231.86416,357.5923 H 152.40084 L 21.940959,200.82843 v -25.10608 h 59.646604 c 43.956297,0 65.986307,-31.3308 65.986307,-62.66318 0,-31.4328 -22.03001,-61.158779 -65.986307,-61.158779 z"
     style="fill:#003262;fill-opacity:1;stroke-width:1.00505" /></g>                 <g
   id="g17"
   inkscape:label="branding"
   style="display:inline"
   transform="matrix(1.1276282,0,0,1.0608359,33.838261,775.47448)"><text
     xml:space="preserve"
     style="font-weight:500;font-size:38.5821px;line-height:3.2;font-family:'Open Sans';-inkscape-font-specification:'Open Sans Medium';text-align:start;letter-spacing:5.78734px;writing-mode:lr-tb;direction:ltr;text-anchor:start;display:inline;fill:#ffffff;fill-opacity:1;stroke-width:0.656204"
     x="129.82448"
     y="-284.84714"
     id="text2"
     transform="scale(0.99834275,1.00166)"
     inkscape:label="compatible"><tspan
       sodipodi:role="line"
       id="tspan2"
       x="132.71814"
       y="-284.84714"
       style="font-style:normal;font-variant:normal;font-weight:300;font-stretch:normal;line-height:3.2;font-family:'Open Sans';-inkscape-font-specification:'Open Sans Light';text-align:center;letter-spacing:5.78734px;text-anchor:middle;stroke-width:0.656204">COMPATIBLE</tspan></text><rect
     x="56.093033"
     y="-368.04041"
     class="st1"
     width="8.6345577"
     height="40.495701"
     id="rect2"
     style="display:inline;fill:#ffffff;stroke-width:0.377055" /><path
     class="st1"
     d="m 116.08246,-336.40549 -44.869538,-0.0377 v 8.8985 h 45.208888 c 3.3935,0 6.25911,-1.3197 8.63456,-3.65744 2.33774,-2.33774 3.65743,-5.24106 3.65743,-8.63455 0,-3.3935 -1.31969,-6.25912 -3.65743,-8.63456 -2.33774,-2.33774 -5.24106,-3.65744 -8.63456,-3.65744 l -32.879188,-0.18852 c -1.92298,0 -3.50661,-1.58363 -3.50661,-3.50661 v 0 0 c 0,-1.96069 1.58363,-3.50662 3.54432,-3.50662 l 45.133468,-0.0377 v -8.67226 H 83.504922 c -3.3935,0 -6.25912,1.31969 -8.63456,3.65743 -2.33774,2.33774 -3.65744,5.24106 -3.65744,8.63456 0,3.39349 1.3197,6.25911 3.65744,8.63455 2.33774,2.33775 5.20336,3.3935 8.63456,3.3935 H 116.3464 c 1.96069,0 3.54432,1.58363 3.50661,3.54432 v 0 0 c 0.0377,2.0738 -1.65904,3.77055 -3.77055,3.77055 z"
     id="path3"
     style="display:inline;fill:#ffffff;stroke-width:0.377055" /><path
     class="st1"
     d="m 152.99614,-368.0404 h 37.36615 v 8.63455 h -37.36615 c -3.12956,0 -5.73123,1.01805 -8.10668,3.3935 -2.33774,2.33774 -3.39349,4.97712 -3.39349,8.10668 0,3.12956 1.05575,5.73123 3.39349,8.10668 2.37545,2.33774 4.97712,3.3935 8.10668,3.3935 h 37.36615 v 8.89849 h -37.32844 c -5.4673,0 -10.21819,-2.11151 -14.13956,-6.03288 -3.92138,-3.92137 -5.73124,-8.63456 -5.73124,-14.10185 0,-5.4673 1.80986,-10.18049 5.73124,-14.10186 3.92137,-4.18531 8.63455,-6.29681 14.10185,-6.29681 z"
     id="path4"
     style="display:inline;fill:#ffffff;stroke-width:0.377055" /><path
     class="st1"
     d="m 37.014042,-351.75163 -36.04644975,-0.0754 v -7.31487 l 36.42350975,-0.0754 c 1.96068,0 3.54431,1.58363 3.58202,3.54432 v 0 0 c -0.0377,2.14921 -1.80987,3.92137 -3.95908,3.92137 z m 12.81987,24.20693 -11.50018,-15.94943 c 3.12956,-0.26394 5.73124,-1.31969 7.84275,-3.65743 2.33774,-2.37545 3.65743,-5.24106 3.65743,-8.63456 0,-3.39349 -1.31969,-6.25911 -3.65743,-8.63456 -2.33774,-2.37544 -5.24107,-3.65743 -8.63456,-3.65743 H -7.6669677 v 40.4957 h 8.63455995 v -15.94942 H 27.625372 l 11.50018,15.94942 h 10.70836 z"
     id="path5"
     style="display:inline;fill:#ffffff;stroke-width:0.377055" /><polyline
     class="st0"
     points="859.1,133.7 796.3,26.3 823.2,26.3 872.3,111.5 921.3,26.3 947.8,26.3 885.4,133.7   "
     id="polyline5"
     style="display:inline;fill:#fdb515;fill-opacity:1"
     transform="matrix(0.37705494,0,0,0.37705494,-90.468238,-377.95695)" /><rect
     x="195.60335"
     y="-351.56311"
     class="st0"
     width="16.967472"
     height="7.8427424"
     id="rect5"
     style="display:inline;fill:#fdb515;stroke-width:0.377055;fill-opacity:1" /></g><rect
   style="fill:none;fill-opacity:1;stroke-width:4;stroke:#ffffff;stroke-opacity:1;stroke-dasharray:none"
   id="rect19"
   width="360"
   height="500"
   x="0"
   y="0" /></g> </svg>
